<svg width="119" height="142" viewBox="0 0 119 142" fill="none" xmlns="http://www.w3.org/2000/svg">
<g clip-path="url(#clip0_100_50)">
<path d="M36.6741 134.499C42.2621 136.252 47.0538 134.642 50.9724 130.595C53.7885 127.747 53.0578 125.322 49.2197 124.072C42.0359 121.685 34.6626 119.856 26.7969 117.914C30.4136 114.917 34.381 113.741 38.0398 111.966C53.3271 104.776 67.7894 96.2994 81.3791 86.2456C87.4862 81.7351 93.3915 77.0645 98.7152 71.6291C111.011 59.0315 115.885 43.4539 116.874 26.3359C117.139 22.2729 117.255 18.2693 117.307 14.1886C117.371 10.8256 116.107 9.64587 112.785 9.94395C111.991 10.0214 111.059 10.0159 110.383 10.3899C107.152 12.2004 104.666 11.9228 103.01 7.70053C105.093 11.0982 104.252 13.4651 101.964 15.9988C100.31 17.7967 101.651 20.6312 100.964 22.8676C99.6655 22.9749 99.9495 21.2785 98.8759 21.2612C98.8582 21.4747 98.7634 21.7535 98.8228 21.9018C101.88 26.5267 100.535 31.5036 100.2 36.4207C99.003 52.5898 92.3187 65.7957 79.512 75.9143C74.0691 80.1932 68.5727 84.2527 62.8093 88.0751C52.2669 95.0847 41.1723 100.974 29.6385 106.109C28.749 106.466 27.8653 106.751 26.6022 107.291C27.2829 104.266 29.1029 102.195 30.0923 99.7687C31.8815 95.4737 33.9437 91.3446 35.6617 87.0437C37.0243 83.5733 35.7246 81.9606 31.9345 81.8615C28.5715 81.7978 25.844 83.5784 23.1341 85.1455C22.1373 84.2029 22.9552 82.9807 22.5159 82.2277C19.2945 93.4273 14.3468 103.839 7.60738 113.385C9.33725 108.942 11.073 104.428 12.8029 99.9842C12.5952 99.8954 12.4529 99.8836 12.2453 99.7947C8.51221 107.655 4.708 115.51 0.903781 123.365C0.299371 124.605 0.945865 124.586 1.82398 125.233C3.04029 126.122 4.37495 126.447 5.78671 126.708C15.7342 128.607 25.5988 130.643 35.2266 133.806C35.7842 133.995 36.2588 134.321 36.8106 134.582L36.6741 134.499Z" fill="#C61508"/>
<path d="M45.9107 112.977C71.2458 106.476 92.96 93.5126 111.801 75.4375C92.4613 92.6113 70.2545 104.603 45.9107 112.977Z" fill="#C61508"/>
<path d="M36.7391 134.577C29.9533 133.441 23.1734 132.234 16.3875 131.098C13.8429 130.673 11.2864 130.389 8.64102 130.313C18.9566 132.96 29.2541 134.96 39.7883 135.833C38.7502 135.388 37.712 134.944 36.6738 134.499L36.7391 134.577Z" fill="#C61508"/>
</g>
<defs>
<clipPath id="clip0_100_50">
<rect width="132.915" height="107.775" fill="white" transform="matrix(0.0825864 -0.996584 -0.996584 -0.0825864 107.407 141.436)"/>
</clipPath>
</defs>
</svg>
