<svg width="45" height="45" viewBox="0 0 45 45" fill="none" xmlns="http://www.w3.org/2000/svg">
<g clip-path="url(#clip0_130_103)">
<path d="M42.8668 2.85103C43.2967 3.28711 42.7808 3.53869 42.6089 3.70641C41.9039 4.42762 41.0785 5.03142 40.3907 5.75263C40.0296 6.12162 39.3418 6.57447 40.3563 7.12796C40.6658 7.29568 40.1499 7.68144 39.9952 7.68144C39.2042 7.71499 39.2042 8.18461 39.2214 8.77164C39.2214 9.49285 38.5508 9.96247 37.777 9.7612C38.2413 10.4992 37.8458 10.952 37.4159 11.4887C36.281 12.8976 34.8366 14.0549 33.8909 15.6315C33.7189 15.9166 33.5814 16.1682 33.5814 16.5372C33.5642 17.4597 32.8935 18.0299 32.2057 18.4996C31.879 18.7176 31.4663 18.8518 31.1568 19.1537C31.0537 19.2543 30.1423 19.9084 29.9875 20.0091C29.6264 20.2606 29.5749 20.6464 29.4373 20.9986V20.9819C28.5775 21.2838 28.4572 22.1559 28.0101 22.7765C27.2363 23.8835 26.2218 24.8898 25.7403 26.1142C24.8118 28.4455 23.419 30.542 22.5592 32.9237C21.5619 35.7247 20.9772 38.6263 19.9455 41.3937C19.4641 42.6516 18.8794 43.876 17.7789 44.7482C17.5726 44.9159 17.3834 45.1675 16.9879 44.8656C16.4033 44.4295 15.9734 44.027 15.406 42.6516C14.7697 41.1589 14.1507 39.6494 13.9272 38.0225C13.6864 36.2782 12.6203 34.819 12.0701 33.1753C10.5397 28.5629 7.65091 24.7556 4.65893 20.9986C3.85075 19.9923 3.09416 18.9356 2.26879 17.9293C1.42622 16.8894 1.08232 15.6483 0.738412 14.4071C0.63524 14.0549 0.566459 13.7362 0.239749 13.4679C-0.155742 13.1492 -0.0181797 12.8808 0.446092 12.7802C0.92756 12.6628 1.16829 12.4112 1.20268 11.9081C1.21988 11.5391 1.37464 11.2204 1.71854 11.0024C1.95928 10.8514 2.11403 10.6166 2.33757 10.4321C3.91953 9.05677 3.95393 9.05677 5.60467 10.4489C7.08346 11.69 8.3903 13.0821 9.55958 14.6252C11.7434 17.5268 13.8928 20.4451 15.8874 23.4809C16.2313 24.0009 16.7128 24.4873 16.5752 25.2085C16.5581 25.3259 16.6956 25.5271 16.816 25.6278C17.3834 26.1309 17.7617 26.7347 18.1916 27.4895C18.4839 26.5335 18.8278 25.5942 19.0514 24.6214C19.5328 22.592 20.341 20.7135 21.2008 18.8182C21.8198 17.4597 22.628 16.2353 23.4705 15.0109C23.6253 14.7929 23.7285 14.4407 24.1927 14.5748C24.4679 14.6587 24.5538 14.34 24.6398 14.1555C25.1901 13.0653 25.9467 12.1429 27.0128 11.4887C27.2707 11.321 27.4083 10.9688 27.6146 10.6837C27.2879 10.5327 27.2363 11.0191 26.8408 10.8514C27.6834 10.0799 28.1649 9.05677 29.3685 8.68778C30.1767 8.43619 30.7957 7.73176 31.3632 7.1615C32.9279 5.63522 34.9398 4.66243 36.4702 3.13616C36.7281 2.88457 37.0204 2.66653 37.4503 2.70008C37.5191 3.05229 37.0892 3.03552 37.0376 3.37097C38.0521 2.8678 38.8603 2.21368 39.7201 1.59311C40.5626 0.989305 41.6287 1.08994 42.6089 0.888672C41.4396 2.01241 40.0296 2.85103 38.8431 4.0754C39.101 4.17604 39.2386 4.24313 39.5309 4.09218C40.3219 3.68964 41.0613 3.20325 41.6803 2.59944C41.9726 2.31431 42.179 2.33109 42.4541 2.54913C42.5057 2.76717 42.5917 2.91812 42.8668 2.85103Z" fill="#08C610"/>
<path d="M42.8678 2.85096C42.5927 2.91805 42.5067 2.78387 42.4895 2.53229C42.885 1.71045 43.8135 1.72722 44.5014 1.375C43.9683 1.8614 43.418 2.34779 42.8678 2.85096Z" fill="#08C610"/>
<path d="M29.4211 20.9823C29.6962 20.8649 29.8165 20.5127 30.2636 20.5127C29.8681 21.15 29.4898 21.7203 29.0943 22.3409C28.7676 21.7371 29.3351 21.4184 29.4211 20.9823C29.4211 20.9823 29.4211 20.9655 29.4211 20.9823Z" fill="#08C610"/>
<path d="M45 0C44.4498 0.469624 43.9167 0.939247 43.3665 1.40887C43.6932 0.721208 44.1402 0.15095 45 0Z" fill="#08C610"/>
</g>
<defs>
<clipPath id="clip0_130_103">
<rect width="45" height="45" fill="white"/>
</clipPath>
</defs>
</svg>
