<svg width="45" height="45" viewBox="0 0 45 45" fill="none" xmlns="http://www.w3.org/2000/svg">
<g clip-path="url(#clip0_130_128)">
<path d="M41.0027 3.05432C41.1588 3.20455 41.2525 3.05432 41.3774 3.02094C41.5648 2.98756 41.7677 2.93748 41.8614 3.13778C41.9707 3.38815 41.7209 3.45492 41.596 3.57176C41.2993 3.82213 40.9714 4.0725 40.6591 4.32287C40.4718 4.47309 40.2532 4.67339 40.4093 4.94045C40.5655 5.2242 40.7684 4.97383 40.9558 4.92376C41.0495 4.89038 41.1432 4.80692 41.3149 5.00722C39.1758 7.01018 37.021 8.97977 35.0537 11.183C35.647 10.8659 36.0998 10.265 36.74 10.0647C36.943 10.3818 36.5838 10.482 36.6463 10.7824C37.5207 10.048 38.4263 9.39705 39.1914 8.61256C40.4249 7.34401 41.9551 6.55952 43.3604 5.57472C43.4697 5.49127 43.5634 5.37443 43.6883 5.54134C43.7976 5.69156 43.782 5.87517 43.6414 5.99201C43.1418 6.44268 42.7046 7.09364 42.1269 7.26055C41.3305 7.49423 41.2525 8.29542 40.7684 8.76278C38.6605 10.7991 36.4745 12.7186 34.4603 14.8551C34.0387 15.3058 33.7265 15.7899 33.5391 16.3741C33.4922 16.5076 33.4142 16.7246 33.461 16.758C34.148 17.4256 33.3673 17.5925 33.1019 17.8429C31.6498 19.2784 30.104 20.6137 28.8861 22.2828C28.1366 23.301 28.1522 23.5013 29.0266 24.3525C30.8691 26.1552 32.7271 27.9078 34.5696 29.7105C35.038 30.1778 35.4596 30.7287 35.8812 31.2461C35.9437 31.3295 36.0373 31.4464 36.0061 31.5298C35.8031 32.5981 36.5995 33.1656 37.021 33.9167C37.2396 34.3173 37.6924 34.6344 37.3489 35.2353C37.224 35.4523 37.4738 35.7528 37.6144 35.9864C38.7854 37.956 40.3 39.5751 41.877 41.1608C42.9544 42.229 43.9225 43.4475 44.9374 44.5992C44.9999 44.666 45.0155 44.7995 44.9843 44.9497C43.579 43.6478 42.3611 42.1122 40.6748 41.2275C40.6591 41.4612 41.0963 41.6949 40.8309 41.8952C40.6123 42.0621 40.2532 41.9787 39.9721 41.745C39.5661 41.4111 39.3007 40.8937 38.7074 40.6433C38.7698 41.1775 39.3163 41.3778 39.3007 42.0287C37.0679 40.2261 35.3035 37.9727 32.8677 36.604C33.9919 38.6237 35.647 40.176 37.0367 41.9787C37.0054 42.0788 36.9117 42.0788 36.8649 42.0287C35.163 40.443 32.9614 40.0258 30.9471 39.2079C30.588 39.0577 30.307 38.8574 30.0259 38.607C27.1373 35.8863 24.2643 33.1489 21.3913 30.4115C21.2351 30.2613 21.079 30.1111 20.9385 29.9442C20.3451 29.193 19.6425 29.2431 19.3927 30.1945C19.0335 31.4965 18.0811 32.2476 17.3316 33.1322C14.7709 36.1701 11.9291 38.9241 8.83749 41.3444C7.15116 42.663 5.46483 43.9649 3.35692 44.4156C2.0141 44.6994 1.57691 44.3154 1.56129 42.8633C1.56129 42.3959 1.49884 42.0454 0.999183 41.8117C-0.0781939 41.2776 -0.24995 40.6267 0.265317 39.4583C0.999183 37.7724 2.15463 36.4037 3.23201 34.9683C4.30938 33.5328 5.4336 32.1641 6.68274 30.8789C6.90133 30.6452 7.10432 30.3781 7.29169 30.1111C7.71327 29.5436 8.10362 29.0094 8.66573 28.5254C10.2896 27.1066 11.6949 25.4041 13.1782 23.8184C13.5217 23.4512 13.4437 23.1508 13.1002 22.8503C9.35276 19.5788 6.26115 15.6229 3.10709 11.7505C2.13902 10.5488 1.2334 9.21345 0.874269 7.59438C0.452687 5.64149 1.34269 4.4564 3.21639 4.42302C6.62028 4.35625 9.5089 5.64149 12.0384 8.01167C13.9902 9.84772 15.9419 11.6838 17.8625 13.5532C18.4246 14.104 18.9867 14.3043 19.7674 14.1541C22.1564 13.6867 24.0769 12.2346 25.9662 10.7824C30.4787 7.32732 35.1161 4.10588 40.1126 1.50202C41.0495 1.01797 42.0956 0.750911 42.9544 0.0832552C43.1418 -0.0669674 43.4385 -0.150424 43.579 0.133329C43.7195 0.433774 43.4541 0.600688 43.2511 0.684145C42.6109 0.951208 42.0644 1.36849 41.596 1.90262C41.3149 2.26983 40.987 2.57027 41.0027 3.05432ZM33.8358 39.5417C34.1168 39.9757 34.4915 40.2761 35.0849 40.5265C34.7414 39.9089 34.2886 39.742 33.8358 39.5417Z" fill="#C61508"/>
<path d="M41.9238 43.3643C41.4866 43.2308 41.2368 42.9136 40.987 42.6466C40.8777 42.5297 40.8933 42.3127 41.0494 42.2126C41.2212 42.0957 41.2993 42.1792 41.3929 42.3795C41.5179 42.6799 41.9082 42.8635 41.9238 43.3643Z" fill="#C61508"/>
</g>
<defs>
<clipPath id="clip0_130_128">
<rect width="45" height="45" fill="white"/>
</clipPath>
</defs>
</svg>
